<svg xmlns="http://www.w3.org/2000/svg" width="256" height="256" fill="none"><path fill="#fff" d="M0 0h256v256H0z"/><path fill="#000" d="M94.5 100.438c-3.708 0-7 .729-9.875 2.187-2.833 1.417-5.23 3.479-7.187 6.187-1.917 2.709-3.376 5.98-4.376 9.813-1 3.833-1.5 8.146-1.5 12.937 0 6.459.792 11.98 2.376 16.563 1.624 4.542 4.124 8.021 7.5 10.437 3.374 2.376 7.729 3.563 13.062 3.563a50.62 50.62 0 0 0 11.125-1.25c3.75-.833 7.813-2.021 12.187-3.563v16.25c-4.041 1.667-8.02 2.855-11.937 3.563-3.917.75-8.312 1.125-13.187 1.125-9.417 0-17.167-1.938-23.25-5.812-6.042-3.917-10.521-9.376-13.438-16.376-2.917-7.041-4.375-15.25-4.375-24.624 0-6.917.938-13.25 2.813-19 1.874-5.75 4.624-10.73 8.25-14.938 3.624-4.208 8.104-7.458 13.437-9.75s11.458-3.437 18.375-3.437c4.542 0 9.083.583 13.625 1.75a67.347 67.347 0 0 1 13.125 4.687L115 106.5a103.434 103.434 0 0 0-10.312-4.25c-3.459-1.208-6.855-1.812-10.188-1.812Zm42.812-14.813h28.438c12.167 0 21.375 1.708 27.625 5.125s9.375 9.417 9.375 18c0 3.458-.562 6.583-1.688 9.375-1.083 2.792-2.666 5.083-4.75 6.875-2.083 1.792-4.624 2.958-7.624 3.5v.625c3.041.625 5.791 1.708 8.25 3.25 2.458 1.5 4.416 3.708 5.874 6.625 1.5 2.875 2.25 6.708 2.25 11.5 0 5.542-1.354 10.292-4.062 14.25s-6.583 7-11.625 9.125c-5 2.083-10.958 3.125-17.875 3.125h-34.188V85.625Zm19.376 36.187h11.25c5.624 0 9.52-.874 11.687-2.624 2.167-1.792 3.25-4.417 3.25-7.876 0-3.5-1.292-6-3.875-7.5-2.542-1.541-6.583-2.312-12.125-2.312h-10.187v20.312Zm0 15.376V161h12.624c5.834 0 9.896-1.125 12.188-3.375s3.438-5.271 3.438-9.063c0-2.25-.5-4.229-1.5-5.937-1-1.708-2.688-3.042-5.063-4-2.333-.958-5.563-1.437-9.687-1.437h-12Z"/></svg>