<svg width="1280" height="640" viewBox="0 0 1280 640" fill="none" xmlns="http://www.w3.org/2000/svg">
<g clip-path="url(#clip0_1_3)">
<rect width="1280" height="640" fill="white"/>
<g clip-path="url(#clip1_1_3)">
<rect width="1280" height="640" fill="white"/>
<rect width="2200" height="1024" fill="#0F86FF"/>
<path d="M298.887 178.227C311.842 178.227 322.52 179.789 330.918 182.914C339.382 186.039 345.664 190.759 349.766 197.074C353.867 203.389 355.918 211.365 355.918 221C355.918 227.51 354.681 233.207 352.207 238.09C349.733 242.973 346.478 247.107 342.441 250.492C338.405 253.878 334.043 256.645 329.355 258.793L371.348 321H337.754L303.672 266.215H287.559V321H257.285V178.227H298.887ZM296.738 203.031H287.559V241.605H297.324C307.35 241.605 314.512 239.945 318.809 236.625C323.171 233.24 325.352 228.292 325.352 221.781C325.352 215.01 323.008 210.193 318.32 207.328C313.698 204.464 306.504 203.031 296.738 203.031ZM486.191 266.215C486.191 275.329 484.954 283.402 482.48 290.434C480.072 297.465 476.523 303.422 471.836 308.305C467.214 313.122 461.615 316.768 455.039 319.242C448.529 321.716 441.172 322.953 432.969 322.953C425.286 322.953 418.223 321.716 411.777 319.242C405.397 316.768 399.831 313.122 395.078 308.305C390.391 303.422 386.745 297.465 384.141 290.434C381.602 283.402 380.332 275.329 380.332 266.215C380.332 254.105 382.48 243.852 386.777 235.453C391.074 227.055 397.194 220.674 405.137 216.312C413.079 211.951 422.552 209.77 433.555 209.77C443.776 209.77 452.826 211.951 460.703 216.312C468.646 220.674 474.863 227.055 479.355 235.453C483.913 243.852 486.191 254.105 486.191 266.215ZM410.703 266.215C410.703 273.376 411.484 279.398 413.047 284.281C414.609 289.164 417.051 292.842 420.371 295.316C423.691 297.79 428.021 299.027 433.359 299.027C438.633 299.027 442.897 297.79 446.152 295.316C449.473 292.842 451.882 289.164 453.379 284.281C454.941 279.398 455.723 273.376 455.723 266.215C455.723 258.988 454.941 252.999 453.379 248.246C451.882 243.428 449.473 239.815 446.152 237.406C442.832 234.997 438.503 233.793 433.164 233.793C425.286 233.793 419.557 236.495 415.977 241.898C412.461 247.302 410.703 255.408 410.703 266.215ZM639.023 209.77C651.393 209.77 660.736 212.96 667.051 219.34C673.431 225.655 676.621 235.811 676.621 249.809V321H646.738V257.23C646.738 249.418 645.404 243.526 642.734 239.555C640.065 235.583 635.931 233.598 630.332 233.598C622.454 233.598 616.855 236.43 613.535 242.094C610.215 247.693 608.555 255.733 608.555 266.215V321H578.77V257.23C578.77 252.022 578.184 247.66 577.012 244.145C575.84 240.629 574.049 237.992 571.641 236.234C569.232 234.477 566.139 233.598 562.363 233.598C556.829 233.598 552.467 234.997 549.277 237.797C546.152 240.531 543.906 244.6 542.539 250.004C541.237 255.342 540.586 261.885 540.586 269.633V321H510.801V211.82H533.555L537.559 225.785H539.219C541.432 222.009 544.199 218.949 547.52 216.605C550.905 214.262 554.616 212.536 558.652 211.43C562.689 210.323 566.79 209.77 570.957 209.77C578.965 209.77 585.736 211.072 591.27 213.676C596.868 216.28 601.165 220.316 604.16 225.785H606.797C610.052 220.186 614.642 216.117 620.566 213.578C626.556 211.039 632.708 209.77 639.023 209.77ZM752.305 209.77C762.396 209.77 771.087 211.723 778.379 215.629C785.671 219.47 791.302 225.069 795.273 232.426C799.245 239.783 801.23 248.767 801.23 259.379V273.832H730.82C731.146 282.23 733.652 288.839 738.34 293.656C743.092 298.409 749.668 300.785 758.066 300.785C765.033 300.785 771.413 300.069 777.207 298.637C783.001 297.204 788.958 295.056 795.078 292.191V315.238C789.674 317.908 784.01 319.861 778.086 321.098C772.227 322.335 765.098 322.953 756.699 322.953C745.762 322.953 736.061 320.935 727.598 316.898C719.199 312.862 712.591 306.71 707.773 298.441C703.021 290.173 700.645 279.757 700.645 267.191C700.645 254.431 702.793 243.819 707.09 235.355C711.452 226.827 717.507 220.447 725.254 216.215C733.001 211.918 742.018 209.77 752.305 209.77ZM752.5 230.961C746.706 230.961 741.888 232.816 738.047 236.527C734.271 240.238 732.09 246.065 731.504 254.008H773.301C773.236 249.581 772.422 245.642 770.859 242.191C769.362 238.741 767.083 236.007 764.023 233.988C761.029 231.97 757.188 230.961 752.5 230.961ZM887.461 209.77C899.115 209.77 908.49 212.96 915.586 219.34C922.682 225.655 926.23 235.811 926.23 249.809V321H896.445V257.23C896.445 249.418 895.013 243.526 892.148 239.555C889.349 235.583 884.922 233.598 878.867 233.598C869.753 233.598 863.535 236.69 860.215 242.875C856.895 249.06 855.234 257.979 855.234 269.633V321H825.449V211.82H848.203L852.207 225.785H853.867C856.211 222.009 859.108 218.949 862.559 216.605C866.074 214.262 869.948 212.536 874.18 211.43C878.477 210.323 882.904 209.77 887.461 209.77ZM1033.07 288.578C1033.07 296 1031.31 302.283 1027.79 307.426C1024.34 312.504 1019.17 316.378 1012.27 319.047C1005.36 321.651 996.771 322.953 986.484 322.953C978.867 322.953 972.324 322.465 966.855 321.488C961.452 320.512 955.983 318.884 950.449 316.605V291.996C956.374 294.665 962.721 296.879 969.492 298.637C976.328 300.329 982.318 301.176 987.461 301.176C993.255 301.176 997.389 300.329 999.863 298.637C1002.4 296.879 1003.67 294.6 1003.67 291.801C1003.67 289.978 1003.15 288.35 1002.11 286.918C1001.13 285.421 998.984 283.76 995.664 281.938C992.344 280.049 987.135 277.608 980.039 274.613C973.203 271.749 967.572 268.852 963.145 265.922C958.783 262.992 955.527 259.542 953.379 255.57C951.296 251.534 950.254 246.423 950.254 240.238C950.254 230.147 954.16 222.562 961.973 217.484C969.85 212.341 980.365 209.77 993.516 209.77C1000.29 209.77 1006.73 210.453 1012.85 211.82C1019.04 213.188 1025.38 215.368 1031.89 218.363L1022.91 239.848C1017.51 237.504 1012.4 235.583 1007.58 234.086C1002.83 232.589 997.975 231.84 993.027 231.84C988.665 231.84 985.378 232.426 983.164 233.598C980.951 234.77 979.844 236.56 979.844 238.969C979.844 240.727 980.397 242.289 981.504 243.656C982.676 245.023 984.889 246.553 988.145 248.246C991.465 249.874 996.315 251.99 1002.7 254.594C1008.88 257.133 1014.25 259.802 1018.81 262.602C1023.37 265.336 1026.88 268.754 1029.36 272.855C1031.83 276.892 1033.07 282.133 1033.07 288.578ZM114.375 418.438C110.667 418.438 107.375 419.167 104.5 420.625C101.667 422.042 99.2708 424.104 97.3125 426.812C95.3958 429.521 93.9375 432.792 92.9375 436.625C91.9375 440.458 91.4375 444.771 91.4375 449.562C91.4375 456.021 92.2292 461.542 93.8125 466.125C95.4375 470.667 97.9375 474.146 101.312 476.562C104.688 478.938 109.042 480.125 114.375 480.125C118.083 480.125 121.792 479.708 125.5 478.875C129.25 478.042 133.312 476.854 137.688 475.312V491.562C133.646 493.229 129.667 494.417 125.75 495.125C121.833 495.875 117.438 496.25 112.562 496.25C103.146 496.25 95.3958 494.312 89.3125 490.438C83.2708 486.521 78.7917 481.062 75.875 474.062C72.9583 467.021 71.5 458.812 71.5 449.438C71.5 442.521 72.4375 436.188 74.3125 430.438C76.1875 424.688 78.9375 419.708 82.5625 415.5C86.1875 411.292 90.6667 408.042 96 405.75C101.333 403.458 107.458 402.312 114.375 402.312C118.917 402.312 123.458 402.896 128 404.062C132.583 405.188 136.958 406.75 141.125 408.75L134.875 424.5C131.458 422.875 128.021 421.458 124.562 420.25C121.104 419.042 117.708 418.438 114.375 418.438ZM184.312 423.688C193.688 423.688 200.875 425.729 205.875 429.812C210.875 433.896 213.375 440.104 213.375 448.438V495H200.062L196.375 485.5H195.875C193.875 488 191.833 490.042 189.75 491.625C187.667 493.208 185.271 494.375 182.562 495.125C179.854 495.875 176.562 496.25 172.688 496.25C168.562 496.25 164.854 495.458 161.562 493.875C158.312 492.292 155.75 489.875 153.875 486.625C152 483.333 151.062 479.167 151.062 474.125C151.062 466.708 153.667 461.25 158.875 457.75C164.083 454.208 171.896 452.25 182.312 451.875L194.438 451.5V448.438C194.438 444.771 193.479 442.083 191.562 440.375C189.646 438.667 186.979 437.812 183.562 437.812C180.188 437.812 176.875 438.292 173.625 439.25C170.375 440.208 167.125 441.417 163.875 442.875L157.562 430C161.271 428.042 165.417 426.5 170 425.375C174.625 424.25 179.396 423.688 184.312 423.688ZM194.438 462.625L187.062 462.875C180.896 463.042 176.604 464.146 174.188 466.188C171.812 468.229 170.625 470.917 170.625 474.25C170.625 477.167 171.479 479.25 173.188 480.5C174.896 481.708 177.125 482.312 179.875 482.312C183.958 482.312 187.396 481.104 190.188 478.688C193.021 476.271 194.438 472.833 194.438 468.375V462.625ZM262.5 481.062C264.583 481.062 266.604 480.854 268.562 480.438C270.562 480.021 272.542 479.5 274.5 478.875V493.062C272.458 493.979 269.917 494.729 266.875 495.312C263.875 495.938 260.583 496.25 257 496.25C252.833 496.25 249.083 495.583 245.75 494.25C242.458 492.875 239.854 490.521 237.938 487.188C236.062 483.812 235.125 479.125 235.125 473.125V439.438H226V431.375L236.5 425L242 410.25H254.188V425.125H273.75V439.438H254.188V473.125C254.188 475.792 254.938 477.792 256.438 479.125C257.979 480.417 260 481.062 262.5 481.062ZM317.312 423.688C326.688 423.688 333.875 425.729 338.875 429.812C343.875 433.896 346.375 440.104 346.375 448.438V495H333.062L329.375 485.5H328.875C326.875 488 324.833 490.042 322.75 491.625C320.667 493.208 318.271 494.375 315.562 495.125C312.854 495.875 309.562 496.25 305.688 496.25C301.562 496.25 297.854 495.458 294.562 493.875C291.312 492.292 288.75 489.875 286.875 486.625C285 483.333 284.062 479.167 284.062 474.125C284.062 466.708 286.667 461.25 291.875 457.75C297.083 454.208 304.896 452.25 315.312 451.875L327.438 451.5V448.438C327.438 444.771 326.479 442.083 324.562 440.375C322.646 438.667 319.979 437.812 316.562 437.812C313.188 437.812 309.875 438.292 306.625 439.25C303.375 440.208 300.125 441.417 296.875 442.875L290.562 430C294.271 428.042 298.417 426.5 303 425.375C307.625 424.25 312.396 423.688 317.312 423.688ZM327.438 462.625L320.062 462.875C313.896 463.042 309.604 464.146 307.188 466.188C304.812 468.229 303.625 470.917 303.625 474.25C303.625 477.167 304.479 479.25 306.188 480.5C307.896 481.708 310.125 482.312 312.875 482.312C316.958 482.312 320.396 481.104 323.188 478.688C326.021 476.271 327.438 472.833 327.438 468.375V462.625ZM385.125 495H366.062V397.75H385.125V495ZM468.688 459.938C468.688 465.771 467.896 470.938 466.312 475.438C464.771 479.938 462.5 483.75 459.5 486.875C456.542 489.958 452.958 492.292 448.75 493.875C444.583 495.458 439.875 496.25 434.625 496.25C429.708 496.25 425.188 495.458 421.062 493.875C416.979 492.292 413.417 489.958 410.375 486.875C407.375 483.75 405.042 479.938 403.375 475.438C401.75 470.938 400.938 465.771 400.938 459.938C400.938 452.188 402.312 445.625 405.062 440.25C407.812 434.875 411.729 430.792 416.812 428C421.896 425.208 427.958 423.812 435 423.812C441.542 423.812 447.333 425.208 452.375 428C457.458 430.792 461.438 434.875 464.312 440.25C467.229 445.625 468.688 452.188 468.688 459.938ZM420.375 459.938C420.375 464.521 420.875 468.375 421.875 471.5C422.875 474.625 424.438 476.979 426.562 478.562C428.688 480.146 431.458 480.938 434.875 480.938C438.25 480.938 440.979 480.146 443.062 478.562C445.188 476.979 446.729 474.625 447.688 471.5C448.688 468.375 449.188 464.521 449.188 459.938C449.188 455.312 448.688 451.479 447.688 448.438C446.729 445.354 445.188 443.042 443.062 441.5C440.938 439.958 438.167 439.188 434.75 439.188C429.708 439.188 426.042 440.917 423.75 444.375C421.5 447.833 420.375 453.021 420.375 459.938ZM504.875 525.75C495.125 525.75 487.667 524.042 482.5 520.625C477.375 517.25 474.812 512.5 474.812 506.375C474.812 502.167 476.125 498.646 478.75 495.812C481.375 492.979 485.229 490.958 490.312 489.75C488.354 488.917 486.646 487.562 485.188 485.688C483.729 483.771 483 481.75 483 479.625C483 476.958 483.771 474.75 485.312 473C486.854 471.208 489.083 469.458 492 467.75C488.333 466.167 485.417 463.625 483.25 460.125C481.125 456.625 480.062 452.5 480.062 447.75C480.062 442.667 481.167 438.354 483.375 434.812C485.625 431.229 488.875 428.5 493.125 426.625C497.417 424.75 502.625 423.812 508.75 423.812C510.042 423.812 511.542 423.896 513.25 424.062C514.958 424.229 516.521 424.417 517.938 424.625C519.396 424.833 520.375 425 520.875 425.125H545.25V434.812L534.312 437.625C535.312 439.167 536.062 440.812 536.562 442.562C537.062 444.312 537.312 446.167 537.312 448.125C537.312 455.625 534.688 461.479 529.438 465.688C524.229 469.854 516.979 471.938 507.688 471.938C505.479 471.812 503.396 471.646 501.438 471.438C500.479 472.188 499.75 472.979 499.25 473.812C498.75 474.646 498.5 475.521 498.5 476.438C498.5 477.354 498.875 478.125 499.625 478.75C500.417 479.333 501.583 479.792 503.125 480.125C504.708 480.417 506.667 480.562 509 480.562H520.875C528.542 480.562 534.375 482.208 538.375 485.5C542.417 488.792 544.438 493.625 544.438 500C544.438 508.167 541.021 514.5 534.188 519C527.396 523.5 517.625 525.75 504.875 525.75ZM505.688 513.312C510.229 513.312 514.125 512.875 517.375 512C520.667 511.167 523.188 509.958 524.938 508.375C526.688 506.833 527.562 504.979 527.562 502.812C527.562 501.062 527.042 499.667 526 498.625C525 497.625 523.458 496.917 521.375 496.5C519.333 496.083 516.708 495.875 513.5 495.875H503.625C501.292 495.875 499.188 496.25 497.312 497C495.479 497.75 494.021 498.792 492.938 500.125C491.854 501.5 491.312 503.083 491.312 504.875C491.312 507.5 492.562 509.562 495.062 511.062C497.604 512.562 501.146 513.312 505.688 513.312ZM508.75 460.312C512.333 460.312 514.958 459.208 516.625 457C518.292 454.792 519.125 451.792 519.125 448C519.125 443.792 518.25 440.646 516.5 438.562C514.792 436.438 512.208 435.375 508.75 435.375C505.25 435.375 502.625 436.438 500.875 438.562C499.125 440.646 498.25 443.792 498.25 448C498.25 451.792 499.104 454.792 500.812 457C502.562 459.208 505.208 460.312 508.75 460.312ZM591.562 403.625H620C632.167 403.625 641.375 405.333 647.625 408.75C653.875 412.167 657 418.167 657 426.75C657 430.208 656.438 433.333 655.312 436.125C654.229 438.917 652.646 441.208 650.562 443C648.479 444.792 645.938 445.958 642.938 446.5V447.125C645.979 447.75 648.729 448.833 651.188 450.375C653.646 451.875 655.604 454.083 657.062 457C658.562 459.875 659.312 463.708 659.312 468.5C659.312 474.042 657.958 478.792 655.25 482.75C652.542 486.708 648.667 489.75 643.625 491.875C638.625 493.958 632.667 495 625.75 495H591.562V403.625ZM610.938 439.812H622.188C627.812 439.812 631.708 438.938 633.875 437.188C636.042 435.396 637.125 432.771 637.125 429.312C637.125 425.812 635.833 423.312 633.25 421.812C630.708 420.271 626.667 419.5 621.125 419.5H610.938V439.812ZM610.938 455.188V479H623.562C629.396 479 633.458 477.875 635.75 475.625C638.042 473.375 639.188 470.354 639.188 466.562C639.188 464.312 638.688 462.333 637.688 460.625C636.688 458.917 635 457.583 632.625 456.625C630.292 455.667 627.062 455.188 622.938 455.188H610.938ZM739.562 459.938C739.562 465.771 738.771 470.938 737.188 475.438C735.646 479.938 733.375 483.75 730.375 486.875C727.417 489.958 723.833 492.292 719.625 493.875C715.458 495.458 710.75 496.25 705.5 496.25C700.583 496.25 696.062 495.458 691.938 493.875C687.854 492.292 684.292 489.958 681.25 486.875C678.25 483.75 675.917 479.938 674.25 475.438C672.625 470.938 671.812 465.771 671.812 459.938C671.812 452.188 673.188 445.625 675.938 440.25C678.688 434.875 682.604 430.792 687.688 428C692.771 425.208 698.833 423.812 705.875 423.812C712.417 423.812 718.208 425.208 723.25 428C728.333 430.792 732.312 434.875 735.188 440.25C738.104 445.625 739.562 452.188 739.562 459.938ZM691.25 459.938C691.25 464.521 691.75 468.375 692.75 471.5C693.75 474.625 695.312 476.979 697.438 478.562C699.562 480.146 702.333 480.938 705.75 480.938C709.125 480.938 711.854 480.146 713.938 478.562C716.062 476.979 717.604 474.625 718.562 471.5C719.562 468.375 720.062 464.521 720.062 459.938C720.062 455.312 719.562 451.479 718.562 448.438C717.604 445.354 716.062 443.042 713.938 441.5C711.812 439.958 709.042 439.188 705.625 439.188C700.583 439.188 696.917 440.917 694.625 444.375C692.375 447.833 691.25 453.021 691.25 459.938ZM818.812 459.938C818.812 465.771 818.021 470.938 816.438 475.438C814.896 479.938 812.625 483.75 809.625 486.875C806.667 489.958 803.083 492.292 798.875 493.875C794.708 495.458 790 496.25 784.75 496.25C779.833 496.25 775.312 495.458 771.188 493.875C767.104 492.292 763.542 489.958 760.5 486.875C757.5 483.75 755.167 479.938 753.5 475.438C751.875 470.938 751.062 465.771 751.062 459.938C751.062 452.188 752.438 445.625 755.188 440.25C757.938 434.875 761.854 430.792 766.938 428C772.021 425.208 778.083 423.812 785.125 423.812C791.667 423.812 797.458 425.208 802.5 428C807.583 430.792 811.562 434.875 814.438 440.25C817.354 445.625 818.812 452.188 818.812 459.938ZM770.5 459.938C770.5 464.521 771 468.375 772 471.5C773 474.625 774.562 476.979 776.688 478.562C778.812 480.146 781.583 480.938 785 480.938C788.375 480.938 791.104 480.146 793.188 478.562C795.312 476.979 796.854 474.625 797.812 471.5C798.812 468.375 799.312 464.521 799.312 459.938C799.312 455.312 798.812 451.479 797.812 448.438C796.854 445.354 795.312 443.042 793.188 441.5C791.062 439.958 788.292 439.188 784.875 439.188C779.833 439.188 776.167 440.917 773.875 444.375C771.625 447.833 770.5 453.021 770.5 459.938ZM864 481.062C866.083 481.062 868.104 480.854 870.062 480.438C872.062 480.021 874.042 479.5 876 478.875V493.062C873.958 493.979 871.417 494.729 868.375 495.312C865.375 495.938 862.083 496.25 858.5 496.25C854.333 496.25 850.583 495.583 847.25 494.25C843.958 492.875 841.354 490.521 839.438 487.188C837.562 483.812 836.625 479.125 836.625 473.125V439.438H827.5V431.375L838 425L843.5 410.25H855.688V425.125H875.25V439.438H855.688V473.125C855.688 475.792 856.438 477.792 857.938 479.125C859.479 480.417 861.5 481.062 864 481.062ZM938.938 474.25C938.938 479 937.812 483.021 935.562 486.312C933.354 489.562 930.042 492.042 925.625 493.75C921.208 495.417 915.708 496.25 909.125 496.25C904.25 496.25 900.062 495.938 896.562 495.312C893.104 494.688 889.604 493.646 886.062 492.188V476.438C889.854 478.146 893.917 479.562 898.25 480.688C902.625 481.771 906.458 482.312 909.75 482.312C913.458 482.312 916.104 481.771 917.688 480.688C919.312 479.562 920.125 478.104 920.125 476.312C920.125 475.146 919.792 474.104 919.125 473.188C918.5 472.229 917.125 471.167 915 470C912.875 468.792 909.542 467.229 905 465.312C900.625 463.479 897.021 461.625 894.188 459.75C891.396 457.875 889.312 455.667 887.938 453.125C886.604 450.542 885.938 447.271 885.938 443.312C885.938 436.854 888.438 432 893.438 428.75C898.479 425.458 905.208 423.812 913.625 423.812C917.958 423.812 922.083 424.25 926 425.125C929.958 426 934.021 427.396 938.188 429.312L932.438 443.062C928.979 441.562 925.708 440.333 922.625 439.375C919.583 438.417 916.479 437.938 913.312 437.938C910.521 437.938 908.417 438.312 907 439.062C905.583 439.812 904.875 440.958 904.875 442.5C904.875 443.625 905.229 444.625 905.938 445.5C906.688 446.375 908.104 447.354 910.188 448.438C912.312 449.479 915.417 450.833 919.5 452.5C923.458 454.125 926.896 455.833 929.812 457.625C932.729 459.375 934.979 461.562 936.562 464.188C938.146 466.771 938.938 470.125 938.938 474.25ZM983.25 481.062C985.333 481.062 987.354 480.854 989.312 480.438C991.312 480.021 993.292 479.5 995.25 478.875V493.062C993.208 493.979 990.667 494.729 987.625 495.312C984.625 495.938 981.333 496.25 977.75 496.25C973.583 496.25 969.833 495.583 966.5 494.25C963.208 492.875 960.604 490.521 958.688 487.188C956.812 483.812 955.875 479.125 955.875 473.125V439.438H946.75V431.375L957.25 425L962.75 410.25H974.938V425.125H994.5V439.438H974.938V473.125C974.938 475.792 975.688 477.792 977.188 479.125C978.729 480.417 980.75 481.062 983.25 481.062ZM1048.44 423.812C1049.4 423.812 1050.5 423.875 1051.75 424C1053.04 424.083 1054.08 424.208 1054.88 424.375L1053.44 442.25C1052.81 442.042 1051.92 441.896 1050.75 441.812C1049.62 441.688 1048.65 441.625 1047.81 441.625C1045.35 441.625 1042.96 441.938 1040.62 442.562C1038.33 443.188 1036.27 444.208 1034.44 445.625C1032.6 447 1031.15 448.833 1030.06 451.125C1029.02 453.375 1028.5 456.146 1028.5 459.438V495H1009.44V425.125H1023.88L1026.69 436.875H1027.62C1029 434.5 1030.71 432.333 1032.75 430.375C1034.83 428.375 1037.19 426.792 1039.81 425.625C1042.48 424.417 1045.35 423.812 1048.44 423.812ZM1096.19 423.688C1105.56 423.688 1112.75 425.729 1117.75 429.812C1122.75 433.896 1125.25 440.104 1125.25 448.438V495H1111.94L1108.25 485.5H1107.75C1105.75 488 1103.71 490.042 1101.62 491.625C1099.54 493.208 1097.15 494.375 1094.44 495.125C1091.73 495.875 1088.44 496.25 1084.56 496.25C1080.44 496.25 1076.73 495.458 1073.44 493.875C1070.19 492.292 1067.62 489.875 1065.75 486.625C1063.88 483.333 1062.94 479.167 1062.94 474.125C1062.94 466.708 1065.54 461.25 1070.75 457.75C1075.96 454.208 1083.77 452.25 1094.19 451.875L1106.31 451.5V448.438C1106.31 444.771 1105.35 442.083 1103.44 440.375C1101.52 438.667 1098.85 437.812 1095.44 437.812C1092.06 437.812 1088.75 438.292 1085.5 439.25C1082.25 440.208 1079 441.417 1075.75 442.875L1069.44 430C1073.15 428.042 1077.29 426.5 1081.88 425.375C1086.5 424.25 1091.27 423.688 1096.19 423.688ZM1106.31 462.625L1098.94 462.875C1092.77 463.042 1088.48 464.146 1086.06 466.188C1083.69 468.229 1082.5 470.917 1082.5 474.25C1082.5 477.167 1083.35 479.25 1085.06 480.5C1086.77 481.708 1089 482.312 1091.75 482.312C1095.83 482.312 1099.27 481.104 1102.06 478.688C1104.9 476.271 1106.31 472.833 1106.31 468.375V462.625ZM1183.81 423.812C1191.69 423.812 1198.04 426.875 1202.88 433C1207.75 439.125 1210.19 448.104 1210.19 459.938C1210.19 467.854 1209.04 474.521 1206.75 479.938C1204.46 485.312 1201.29 489.375 1197.25 492.125C1193.21 494.875 1188.56 496.25 1183.31 496.25C1179.94 496.25 1177.04 495.833 1174.62 495C1172.21 494.125 1170.15 493.021 1168.44 491.688C1166.73 490.312 1165.25 488.854 1164 487.312H1163C1163.33 488.979 1163.58 490.688 1163.75 492.438C1163.92 494.188 1164 495.896 1164 497.562V525.75H1144.94V425.125H1160.44L1163.12 434.188H1164C1165.25 432.312 1166.77 430.583 1168.56 429C1170.35 427.417 1172.5 426.167 1175 425.25C1177.54 424.292 1180.48 423.812 1183.81 423.812ZM1177.69 439.062C1174.35 439.062 1171.71 439.75 1169.75 441.125C1167.79 442.5 1166.35 444.562 1165.44 447.312C1164.56 450.062 1164.08 453.542 1164 457.75V459.812C1164 464.312 1164.42 468.125 1165.25 471.25C1166.12 474.375 1167.56 476.75 1169.56 478.375C1171.6 480 1174.4 480.812 1177.94 480.812C1180.85 480.812 1183.25 480 1185.12 478.375C1187 476.75 1188.4 474.375 1189.31 471.25C1190.27 468.083 1190.75 464.229 1190.75 459.688C1190.75 452.854 1189.69 447.708 1187.56 444.25C1185.44 440.792 1182.15 439.062 1177.69 439.062Z" fill="white"/>
</g>
</g>
<defs>
<clipPath id="clip0_1_3">
<rect width="1280" height="640" fill="white"/>
</clipPath>
<clipPath id="clip1_1_3">
<rect width="1280" height="640" fill="white"/>
</clipPath>
</defs>
</svg>
