<svg width="570" height="188" viewBox="0 0 570 188" fill="none" xmlns="http://www.w3.org/2000/svg">
<path d="M93.9375 58.4375C90.2292 58.4375 86.9375 59.1667 84.0625 60.625C81.2292 62.0417 78.8333 64.1042 76.875 66.8125C74.9583 69.5208 73.5 72.7917 72.5 76.625C71.5 80.4583 71 84.7708 71 89.5625C71 96.0208 71.7917 101.542 73.375 106.125C75 110.667 77.5 114.146 80.875 116.562C84.25 118.938 88.6042 120.125 93.9375 120.125C97.6458 120.125 101.354 119.708 105.062 118.875C108.812 118.042 112.875 116.854 117.25 115.312V131.562C113.208 133.229 109.229 134.417 105.312 135.125C101.396 135.875 97 136.25 92.125 136.25C82.7083 136.25 74.9583 134.312 68.875 130.438C62.8333 126.521 58.3542 121.062 55.4375 114.062C52.5208 107.021 51.0625 98.8125 51.0625 89.4375C51.0625 82.5208 52 76.1875 53.875 70.4375C55.75 64.6875 58.5 59.7083 62.125 55.5C65.75 51.2917 70.2292 48.0417 75.5625 45.75C80.8958 43.4583 87.0208 42.3125 93.9375 42.3125C98.4792 42.3125 103.021 42.8958 107.562 44.0625C112.146 45.1875 116.521 46.75 120.688 48.75L114.438 64.5C111.021 62.875 107.583 61.4583 104.125 60.25C100.667 59.0417 97.2708 58.4375 93.9375 58.4375ZM163.875 63.6875C173.25 63.6875 180.438 65.7292 185.438 69.8125C190.438 73.8958 192.938 80.1042 192.938 88.4375V135H179.625L175.938 125.5H175.438C173.438 128 171.396 130.042 169.312 131.625C167.229 133.208 164.833 134.375 162.125 135.125C159.417 135.875 156.125 136.25 152.25 136.25C148.125 136.25 144.417 135.458 141.125 133.875C137.875 132.292 135.312 129.875 133.438 126.625C131.562 123.333 130.625 119.167 130.625 114.125C130.625 106.708 133.229 101.25 138.438 97.75C143.646 94.2083 151.458 92.25 161.875 91.875L174 91.5V88.4375C174 84.7708 173.042 82.0833 171.125 80.375C169.208 78.6667 166.542 77.8125 163.125 77.8125C159.75 77.8125 156.438 78.2917 153.188 79.25C149.938 80.2083 146.688 81.4167 143.438 82.875L137.125 70C140.833 68.0417 144.979 66.5 149.562 65.375C154.188 64.25 158.958 63.6875 163.875 63.6875ZM174 102.625L166.625 102.875C160.458 103.042 156.167 104.146 153.75 106.188C151.375 108.229 150.188 110.917 150.188 114.25C150.188 117.167 151.042 119.25 152.75 120.5C154.458 121.708 156.688 122.312 159.438 122.312C163.521 122.312 166.958 121.104 169.75 118.688C172.583 116.271 174 112.833 174 108.375V102.625ZM242.062 121.062C244.146 121.062 246.167 120.854 248.125 120.438C250.125 120.021 252.104 119.5 254.062 118.875V133.062C252.021 133.979 249.479 134.729 246.438 135.312C243.438 135.938 240.146 136.25 236.562 136.25C232.396 136.25 228.646 135.583 225.312 134.25C222.021 132.875 219.417 130.521 217.5 127.188C215.625 123.812 214.688 119.125 214.688 113.125V79.4375H205.562V71.375L216.062 65L221.562 50.25H233.75V65.125H253.312V79.4375H233.75V113.125C233.75 115.792 234.5 117.792 236 119.125C237.542 120.417 239.562 121.062 242.062 121.062ZM296.875 63.6875C306.25 63.6875 313.438 65.7292 318.438 69.8125C323.438 73.8958 325.938 80.1042 325.938 88.4375V135H312.625L308.938 125.5H308.438C306.438 128 304.396 130.042 302.312 131.625C300.229 133.208 297.833 134.375 295.125 135.125C292.417 135.875 289.125 136.25 285.25 136.25C281.125 136.25 277.417 135.458 274.125 133.875C270.875 132.292 268.312 129.875 266.438 126.625C264.562 123.333 263.625 119.167 263.625 114.125C263.625 106.708 266.229 101.25 271.438 97.75C276.646 94.2083 284.458 92.25 294.875 91.875L307 91.5V88.4375C307 84.7708 306.042 82.0833 304.125 80.375C302.208 78.6667 299.542 77.8125 296.125 77.8125C292.75 77.8125 289.438 78.2917 286.188 79.25C282.938 80.2083 279.688 81.4167 276.438 82.875L270.125 70C273.833 68.0417 277.979 66.5 282.562 65.375C287.188 64.25 291.958 63.6875 296.875 63.6875ZM307 102.625L299.625 102.875C293.458 103.042 289.167 104.146 286.75 106.188C284.375 108.229 283.188 110.917 283.188 114.25C283.188 117.167 284.042 119.25 285.75 120.5C287.458 121.708 289.688 122.312 292.438 122.312C296.521 122.312 299.958 121.104 302.75 118.688C305.583 116.271 307 112.833 307 108.375V102.625ZM364.688 135H345.625V37.75H364.688V135ZM448.25 99.9375C448.25 105.771 447.458 110.938 445.875 115.438C444.333 119.938 442.062 123.75 439.062 126.875C436.104 129.958 432.521 132.292 428.312 133.875C424.146 135.458 419.438 136.25 414.188 136.25C409.271 136.25 404.75 135.458 400.625 133.875C396.542 132.292 392.979 129.958 389.938 126.875C386.938 123.75 384.604 119.938 382.938 115.438C381.312 110.938 380.5 105.771 380.5 99.9375C380.5 92.1875 381.875 85.625 384.625 80.25C387.375 74.875 391.292 70.7917 396.375 68C401.458 65.2083 407.521 63.8125 414.562 63.8125C421.104 63.8125 426.896 65.2083 431.938 68C437.021 70.7917 441 74.875 443.875 80.25C446.792 85.625 448.25 92.1875 448.25 99.9375ZM399.938 99.9375C399.938 104.521 400.438 108.375 401.438 111.5C402.438 114.625 404 116.979 406.125 118.562C408.25 120.146 411.021 120.938 414.438 120.938C417.812 120.938 420.542 120.146 422.625 118.562C424.75 116.979 426.292 114.625 427.25 111.5C428.25 108.375 428.75 104.521 428.75 99.9375C428.75 95.3125 428.25 91.4792 427.25 88.4375C426.292 85.3542 424.75 83.0417 422.625 81.5C420.5 79.9583 417.729 79.1875 414.312 79.1875C409.271 79.1875 405.604 80.9167 403.312 84.375C401.062 87.8333 399.938 93.0208 399.938 99.9375ZM484.438 165.75C474.688 165.75 467.229 164.042 462.062 160.625C456.938 157.25 454.375 152.5 454.375 146.375C454.375 142.167 455.688 138.646 458.312 135.812C460.938 132.979 464.792 130.958 469.875 129.75C467.917 128.917 466.208 127.562 464.75 125.688C463.292 123.771 462.562 121.75 462.562 119.625C462.562 116.958 463.333 114.75 464.875 113C466.417 111.208 468.646 109.458 471.562 107.75C467.896 106.167 464.979 103.625 462.812 100.125C460.688 96.625 459.625 92.5 459.625 87.75C459.625 82.6667 460.729 78.3542 462.938 74.8125C465.188 71.2292 468.438 68.5 472.688 66.625C476.979 64.75 482.188 63.8125 488.312 63.8125C489.604 63.8125 491.104 63.8958 492.812 64.0625C494.521 64.2292 496.083 64.4167 497.5 64.625C498.958 64.8333 499.938 65 500.438 65.125H524.812V74.8125L513.875 77.625C514.875 79.1667 515.625 80.8125 516.125 82.5625C516.625 84.3125 516.875 86.1667 516.875 88.125C516.875 95.625 514.25 101.479 509 105.688C503.792 109.854 496.542 111.938 487.25 111.938C485.042 111.812 482.958 111.646 481 111.438C480.042 112.188 479.312 112.979 478.812 113.812C478.312 114.646 478.062 115.521 478.062 116.438C478.062 117.354 478.438 118.125 479.188 118.75C479.979 119.333 481.146 119.792 482.688 120.125C484.271 120.417 486.229 120.562 488.562 120.562H500.438C508.104 120.562 513.938 122.208 517.938 125.5C521.979 128.792 524 133.625 524 140C524 148.167 520.583 154.5 513.75 159C506.958 163.5 497.188 165.75 484.438 165.75ZM485.25 153.312C489.792 153.312 493.688 152.875 496.938 152C500.229 151.167 502.75 149.958 504.5 148.375C506.25 146.833 507.125 144.979 507.125 142.812C507.125 141.062 506.604 139.667 505.562 138.625C504.562 137.625 503.021 136.917 500.938 136.5C498.896 136.083 496.271 135.875 493.062 135.875H483.188C480.854 135.875 478.75 136.25 476.875 137C475.042 137.75 473.583 138.792 472.5 140.125C471.417 141.5 470.875 143.083 470.875 144.875C470.875 147.5 472.125 149.562 474.625 151.062C477.167 152.562 480.708 153.312 485.25 153.312ZM488.312 100.312C491.896 100.312 494.521 99.2083 496.188 97C497.854 94.7917 498.688 91.7917 498.688 88C498.688 83.7917 497.812 80.6458 496.062 78.5625C494.354 76.4375 491.771 75.375 488.312 75.375C484.812 75.375 482.188 76.4375 480.438 78.5625C478.688 80.6458 477.812 83.7917 477.812 88C477.812 91.7917 478.667 94.7917 480.375 97C482.125 99.2083 484.771 100.312 488.312 100.312Z" fill="white"/>
</svg>
